<svg xmlns="http://www.w3.org/2000/svg" xmlns:xlink="http://www.w3.org/1999/xlink" viewBox="0,0,256,256" width="480px" height="480px" fill-rule="nonzero"><g transform="translate(-57.6,-57.6) scale(1.45,1.45)"><g fill="#1c5c12" fill-rule="nonzero" stroke="none" stroke-width="1" stroke-linecap="butt" stroke-linejoin="miter" stroke-miterlimit="10" stroke-dasharray="" stroke-dashoffset="0" font-family="none" font-weight="none" font-size="none" text-anchor="none" style="mix-blend-mode: normal"><g transform="scale(4,4)"><path d="M20,10c-3.314,0 -6,2.686 -6,6v32c0,3.314 2.686,6 6,6h24c3.314,0 6,-2.686 6,-6v-19.34375c0,-1.592 -0.63281,-3.11719 -1.75781,-4.24219l-12.65625,-12.65625c-1.126,-1.125 -2.65119,-1.75781 -4.24219,-1.75781zM20,14h10v10c0,3.314 2.686,6 6,6h10v18c0,1.105 -0.895,2 -2,2h-24c-1.105,0 -2,-0.895 -2,-2v-32c0,-1.105 0.895,-2 2,-2zM34,15.82813l10.17188,10.17188h-8.17187c-1.105,0 -2,-0.895 -2,-2zM24.25195,36.67188c-2.294,0 -3.7793,1.63578 -3.7793,4.17578c0,2.531 1.4763,4.16602 3.7793,4.16602c1.564,0 2.81119,-0.73916 3.24219,-1.91016c0.07,-0.158 0.08789,-0.29827 0.08789,-0.44727c0,-0.431 -0.27933,-0.70312 -0.73633,-0.70312c-0.325,0 -0.53613,0.14842 -0.70312,0.48242c-0.325,0.765 -0.98428,1.1875 -1.86328,1.1875c-1.266,0 -2.10156,-1.10734 -2.10156,-2.77734c0,-1.67 0.83556,-2.78516 2.10156,-2.78516c0.879,0 1.53828,0.42055 1.86328,1.18555c0.176,0.351 0.37813,0.48438 0.70313,0.48438c0.457,0 0.73633,-0.26431 0.73633,-0.69531c0,-0.158 -0.01789,-0.29003 -0.08789,-0.45703c-0.439,-1.16 -1.68619,-1.90625 -3.24219,-1.90625zM31.69922,36.70508c-1.855,0 -3.12891,1.01017 -3.12891,2.45117c0,1.134 0.75748,1.80348 2.14648,2.14648l1.17773,0.31445c1.019,0.255 1.36133,0.49211 1.36133,1.03711c0,0.685 -0.66788,1.06445 -1.54687,1.06445c-0.835,0 -1.40581,-0.30841 -1.75781,-0.94141c-0.193,-0.299 -0.40352,-0.43945 -0.72852,-0.43945c-0.431,0 -0.71289,0.27136 -0.71289,0.69336c0,0.159 0.03428,0.31856 0.11328,0.47656c0.333,0.817 1.40747,1.52734 2.98047,1.52734c2.03,0 3.34766,-0.98353 3.34766,-2.51953c0,-1.187 -0.82605,-1.85366 -2.37305,-2.22266l-1.11523,-0.28125c-0.844,-0.202 -1.17773,-0.4838 -1.17773,-0.9668c0,-0.651 0.53609,-1.05664 1.37109,-1.05664c0.783,0 1.28361,0.29941 1.59961,0.94141c0.193,0.29 0.38805,0.4375 0.74805,0.4375c0.404,0 0.69336,-0.2272 0.69336,-0.6582c0,-0.141 -0.03623,-0.29861 -0.11523,-0.47461c-0.352,-0.879 -1.42381,-1.5293 -2.88281,-1.5293zM37.15625,36.82227c-0.51,0 -0.87109,0.33555 -0.87109,0.81055c0,0.158 0.02708,0.27127 0.08008,0.44727l2.24023,5.98438c0.246,0.712 0.60678,0.99414 1.30078,0.99414c0.676,0 1.06355,-0.31653 1.31055,-1.01953l2.23242,-5.95898c0.053,-0.176 0.07813,-0.29727 0.07813,-0.44727c0,-0.484 -0.35914,-0.81055 -0.86914,-0.81055c-0.475,0 -0.72991,0.21986 -0.87891,0.75586l-1.83789,5.625h-0.07031l-1.83594,-5.625c-0.15,-0.536 -0.40391,-0.75586 -0.87891,-0.75586z"></path></g></g></g></svg>