<svg xmlns="http://www.w3.org/2000/svg" xmlns:xlink="http://www.w3.org/1999/xlink" viewBox="0,0,256,256" width="480px" height="480px" fill-rule="nonzero"><g transform="translate(-57.6,-57.6) scale(1.45,1.45)"><g fill="#758096" fill-rule="nonzero" stroke="none" stroke-width="1" stroke-linecap="butt" stroke-linejoin="miter" stroke-miterlimit="10" stroke-dasharray="" stroke-dashoffset="0" font-family="none" font-weight="none" font-size="none" text-anchor="none" style="mix-blend-mode: normal"><g transform="scale(4,4)"><path d="M20,10c-3.314,0 -6,2.686 -6,6v32c0,3.314 2.686,6 6,6h24c3.314,0 6,-2.686 6,-6v-19.34375c0,-1.592 -0.63281,-3.11719 -1.75781,-4.24219l-12.65625,-12.65625c-1.126,-1.125 -2.65119,-1.75781 -4.24219,-1.75781zM20,14h10v10c0,3.314 2.686,6 6,6h10v18c0,1.105 -0.895,2 -2,2h-24c-1.105,0 -2,-0.895 -2,-2v-32c0,-1.105 0.895,-2 2,-2zM34,15.82813l10.17188,10.17188h-8.17187c-1.105,0 -2,-0.895 -2,-2zM36.12695,33l-7.23633,0.16797c-0.055,0 -0.10372,0.01583 -0.13672,0.04883c-0.049,0.049 -0.049,0.11506 0,0.16406l2.04883,2.04883c0.125,0.125 0.125,0.23242 0,0.35742l-0.69336,0.69336c-3.492,3.492 -2.41392,7.02122 0.08008,9.69922c0.038,0.038 0.07066,0.03872 0.09766,0.01172c0.022,-0.022 0.016,-0.04866 0,-0.09766c-0.71,-2 0.09317,-4.37638 2.57617,-6.85937l0.69336,-0.69336c0.125,-0.125 0.23242,-0.125 0.35742,0l2,2.00195c0.054,0.054 0.11897,0.05291 0.16797,0.00391c0.027,-0.028 0.04578,-0.07672 0.05078,-0.13672l0.19922,-7.20508c0,-0.087 -0.00997,-0.13011 -0.04297,-0.16211c-0.033,-0.032 -0.07511,-0.04297 -0.16211,-0.04297z"></path></g></g></g></svg>