<svg xmlns="http://www.w3.org/2000/svg" xmlns:xlink="http://www.w3.org/1999/xlink" viewBox="0,0,256,256" width="480px" height="480px" fill-rule="nonzero"><g transform="translate(-57.6,-57.6) scale(1.45,1.45)"><g fill="#8a3e9d" fill-rule="nonzero" stroke="none" stroke-width="1" stroke-linecap="butt" stroke-linejoin="miter" stroke-miterlimit="10" stroke-dasharray="" stroke-dashoffset="0" font-family="none" font-weight="none" font-size="none" text-anchor="none" style="mix-blend-mode: normal"><g transform="scale(4,4)"><path d="M20,10c-3.314,0 -6,2.686 -6,6v32c0,3.314 2.686,6 6,6h24c3.314,0 6,-2.686 6,-6v-19.34375c0,-1.592 -0.63281,-3.11719 -1.75781,-4.24219l-12.65625,-12.65625c-1.126,-1.125 -2.65119,-1.75781 -4.24219,-1.75781zM20,14h10v10c0,3.314 2.686,6 6,6h10v18c0,1.105 -0.895,2 -2,2h-24c-1.105,0 -2,-0.895 -2,-2v-32c0,-1.105 0.895,-2 2,-2zM34,15.82813l10.17188,10.17188h-8.17187c-1.105,0 -2,-0.895 -2,-2zM28.80664,32.29297c-0.43777,-0.00703 -0.8457,0.34123 -0.8457,0.83398v12.50781c0,0.658 0.7263,1.05617 1.2793,0.70117l9.75,-6.25586c0.51,-0.327 0.51,-1.07144 0,-1.39844l-9.75,-6.25586c-0.13825,-0.08875 -0.28767,-0.13047 -0.43359,-0.13281z"></path></g></g></g></svg>