<svg xmlns="http://www.w3.org/2000/svg" xmlns:xlink="http://www.w3.org/1999/xlink" viewBox="0,0,256,256" width="480px" height="480px" fill-rule="nonzero"><g transform="translate(-57.6,-57.6) scale(1.45,1.45)"><g fill="#384a8f" fill-rule="nonzero" stroke="none" stroke-width="1" stroke-linecap="butt" stroke-linejoin="miter" stroke-miterlimit="10" stroke-dasharray="" stroke-dashoffset="0" font-family="none" font-weight="none" font-size="none" text-anchor="none" style="mix-blend-mode: normal"><g transform="scale(4,4)"><path d="M20,10c-3.314,0 -6,2.686 -6,6v32c0,3.314 2.686,6 6,6h24c3.314,0 6,-2.686 6,-6v-19.34375c0,-1.592 -0.63281,-3.11719 -1.75781,-4.24219l-12.65625,-12.65625c-1.126,-1.125 -2.65119,-1.75781 -4.24219,-1.75781zM20,14h10v10c0,3.314 2.686,6 6,6h10v18c0,1.105 -0.895,2 -2,2h-24c-1.105,0 -2,-0.895 -2,-2v-32c0,-1.105 0.895,-2 2,-2zM34,15.82813l10.17188,10.17188h-8.17187c-1.105,0 -2,-0.895 -2,-2zM36.27539,32.54492l-4.68359,0.94922c-0.345,0.07 -0.5918,0.3565 -0.5918,0.6875v6.92383c0,0.336 -0.28652,0.6012 -1.22852,0.7832c-1.459,0.283 -2.77148,0.84752 -2.77148,2.60352c0,0.868 0.78848,1.97656 2.77148,1.97656c1.727,0 3.22852,-1.41016 3.22852,-3.41016v-5.38477c0,-0.221 0.16353,-0.41198 0.39453,-0.45898l3.01367,-0.61328c0.345,-0.07 0.5918,-0.3565 0.5918,-0.6875v-2.82031c0,-0.358 -0.35161,-0.62483 -0.72461,-0.54883z"></path></g></g></g></svg>