<svg xmlns="http://www.w3.org/2000/svg" xmlns:xlink="http://www.w3.org/1999/xlink" viewBox="0,0,256,256" width="480px" height="480px" fill-rule="nonzero"><g transform="translate(-57.6,-57.6) scale(1.45,1.45)"><g fill="#9e0303" fill-rule="nonzero" stroke="none" stroke-width="1" stroke-linecap="butt" stroke-linejoin="miter" stroke-miterlimit="10" stroke-dasharray="" stroke-dashoffset="0" font-family="none" font-weight="none" font-size="none" text-anchor="none" style="mix-blend-mode: normal"><g transform="scale(4,4)"><path d="M20,10c-3.314,0 -6,2.686 -6,6v32c0,3.314 2.686,6 6,6h24c3.314,0 6,-2.686 6,-6v-19.34375c0,-1.592 -0.63281,-3.11719 -1.75781,-4.24219l-12.65625,-12.65625c-1.126,-1.125 -2.65119,-1.75781 -4.24219,-1.75781zM20,14h10v10c0,3.314 2.686,6 6,6h10v18c0,1.105 -0.895,2 -2,2h-24c-1.105,0 -2,-0.895 -2,-2v-32c0,-1.105 0.895,-2 2,-2zM34,15.82813l10.17188,10.17188h-8.17187c-1.105,0 -2,-0.895 -2,-2zM22.91016,36.99805c-0.571,0 -0.86914,0.37075 -0.86914,0.96875v6.15039c0,0.571 0.29875,0.94141 0.84375,0.94141c0.545,0 0.85352,-0.36141 0.85352,-0.94141v-1.60742h1.57227c1.749,0 2.91016,-1.089 2.91016,-2.75c0,-1.653 -1.16058,-2.76172 -2.89258,-2.76172zM29.86914,36.99805c-0.571,0 -0.86914,0.37075 -0.86914,0.96875v6.01953c0,0.598 0.29814,0.9668 0.86914,0.9668h2.22461c2.469,0 3.85742,-1.42423 3.85742,-3.99023c0,-2.549 -1.37842,-3.96484 -3.85742,-3.96484zM37.83789,36.99805c-0.58,0 -0.88086,0.37075 -0.88086,0.96875v6.15039c0,0.571 0.3007,0.94141 0.8457,0.94141c0.554,0 0.85256,-0.36141 0.85156,-0.94141v-2.44141h2.95313c0.395,0 0.6582,-0.22823 0.6582,-0.61523c0,-0.404 -0.2622,-0.63281 -0.6582,-0.63281h-2.95312v-2.08398h3.22656c0.422,0 0.70117,-0.25497 0.70117,-0.66797c0,-0.422 -0.27917,-0.67773 -0.70117,-0.67773zM23.73828,38.27344h1.33594c0.941,0 1.50195,0.55414 1.50195,1.49414c0,0.923 -0.56195,1.47656 -1.50195,1.47656h-1.33594zM30.63477,38.29883h1.23047c1.547,0 2.38086,0.91464 2.38086,2.68164c0,1.793 -0.82486,2.67969 -2.38086,2.67969h-1.23047z"></path></g></g></g></svg>