<svg xmlns="http://www.w3.org/2000/svg" xmlns:xlink="http://www.w3.org/1999/xlink" viewBox="0,0,256,256" width="480px" height="480px" fill-rule="nonzero"><g transform="translate(-57.6,-57.6) scale(1.45,1.45)"><g fill="#2775b7" fill-rule="nonzero" stroke="none" stroke-width="1" stroke-linecap="butt" stroke-linejoin="miter" stroke-miterlimit="10" stroke-dasharray="" stroke-dashoffset="0" font-family="none" font-weight="none" font-size="none" text-anchor="none" style="mix-blend-mode: normal"><g transform="scale(4,4)"><path d="M20,10c-3.314,0 -6,2.686 -6,6v32c0,3.314 2.686,6 6,6h24c3.314,0 6,-2.686 6,-6v-19.34375c0,-1.592 -0.63281,-3.11719 -1.75781,-4.24219l-12.65625,-12.65625c-1.126,-1.125 -2.65119,-1.75781 -4.24219,-1.75781zM20,14h10v10c0,3.314 2.686,6 6,6h10v18c0,1.105 -0.895,2 -2,2h-24c-1.105,0 -2,-0.895 -2,-2v-32c0,-1.105 0.895,-2 2,-2zM34,15.82813l10.17188,10.17188h-8.17187c-1.105,0 -2,-0.895 -2,-2zM26.16992,35c-0.642,0 -1.0625,0.4445 -1.0625,1.0625c0,0.112 -0.00017,0.23509 0.04883,0.37109l2.22461,9.01563c0.185,0.741 0.64053,1.125 1.39453,1.125c0.741,0 1.23644,-0.384 1.39844,-1.125l1.77734,-7.06445h0.08594l1.76758,7.06445c0.173,0.741 0.6672,1.125 1.4082,1.125c0.754,0 1.20981,-0.384 1.38281,-1.125l2.24805,-9.01562c0.037,-0.136 0.04883,-0.26009 0.04883,-0.37109c0,-0.617 -0.4205,-1.0625 -1.0625,-1.0625c-0.655,0 -0.97605,0.33461 -1.12305,1.09961l-1.60547,7.37305h-0.09766l-1.8418,-7.49805c-0.149,-0.605 -0.53183,-0.91406 -1.17383,-0.91406c-0.63,0 -1.01411,0.29606 -1.16211,0.91406l-1.85156,7.49805h-0.08594l-1.59375,-7.37305c-0.161,-0.765 -0.483,-1.09961 -1.125,-1.09961z"></path></g></g></g></svg>