<svg xmlns="http://www.w3.org/2000/svg" xmlns:xlink="http://www.w3.org/1999/xlink" viewBox="0,0,256,256" width="480px" height="480px" fill-rule="nonzero"><g transform="translate(-57.6,-57.6) scale(1.45,1.45)"><g fill="#699a1e" fill-rule="nonzero" stroke="none" stroke-width="1" stroke-linecap="butt" stroke-linejoin="miter" stroke-miterlimit="10" stroke-dasharray="" stroke-dashoffset="0" font-family="none" font-weight="none" font-size="none" text-anchor="none" style="mix-blend-mode: normal"><g transform="translate(0,-0.50781) scale(4,4)"><path d="M20,10.12695c-3.314,0 -6,2.686 -6,6v32c0,3.314 2.686,6 6,6h24c3.314,0 6,-2.686 6,-6v-19.34375c0,-1.591 -0.63281,-3.11523 -1.75781,-4.24023l-12.65625,-12.6582c-1.126,-1.125 -2.65119,-1.75586 -4.24219,-1.75586v-0.00195zM20,14.12891h10v9.87109c0,3.314 2.686,6 6,6h10v18.12891c0,1.105 -0.895,2 -2,2h-24c-1.105,0 -2,-0.895 -2,-2v-32c0,-1.105 0.895,-2 2,-2zM34,15.95703l10.04492,10.04297h-8.04492c-1.105,0 -2,-0.895 -2,-2zM38.93164,36.60352c-1.855,0 -3.12891,1.01017 -3.12891,2.45117c0,1.133 0.75553,1.80153 2.14453,2.14453l1.17773,0.31641c1.019,0.255 1.36133,0.49211 1.36133,1.03711c0,0.685 -0.66788,1.0625 -1.54687,1.0625c-0.835,0 -1.40581,-0.30645 -1.75781,-0.93945c-0.193,-0.298 -0.40352,-0.43945 -0.72852,-0.43945c-0.431,0 -0.71289,0.27136 -0.71289,0.69336c0,0.159 0.03623,0.31661 0.11523,0.47461c0.333,0.817 1.40552,1.5293 2.97852,1.5293c2.03,0 3.34861,-0.98353 3.34961,-2.51953c0,-1.187 -0.82605,-1.85561 -2.37305,-2.22461l-1.11719,-0.28125c-0.844,-0.202 -1.17773,-0.4838 -1.17773,-0.9668c0,-0.651 0.53609,-1.05469 1.37109,-1.05469c0.783,0 1.28361,0.29745 1.59961,0.93945c0.193,0.29 0.38805,0.43945 0.74805,0.43945c0.404,0 0.69336,-0.2272 0.69336,-0.6582c0,-0.141 -0.03428,-0.29861 -0.11328,-0.47461c-0.352,-0.879 -1.42381,-1.5293 -2.88281,-1.5293zM30.79883,36.87305c-0.571,0 -0.86914,0.37856 -0.86914,0.97656v6.09961c0,0.597 0.30714,0.98438 0.86914,0.98438h3.90234c0.43,0 0.72852,-0.27194 0.72852,-0.71094c0,-0.439 -0.29752,-0.70312 -0.72852,-0.70312h-3.02344v-5.66992c0,-0.607 -0.31691,-0.97656 -0.87891,-0.97656zM22.69531,36.87695c-0.448,0 -0.80078,0.32409 -0.80078,0.74609c0,0.228 0.06152,0.38547 0.22852,0.60547l1.9707,2.68945l-2.07422,2.84766c-0.14,0.202 -0.20312,0.3515 -0.20312,0.5625c0,0.404 0.32562,0.71094 0.76563,0.71094c0.343,0 0.52806,-0.114 0.78906,-0.5l1.71484,-2.46875h0.04297l1.70508,2.46875c0.255,0.378 0.43825,0.50195 0.78125,0.50195c0.466,0 0.80078,-0.30728 0.80078,-0.73828c0,-0.211 -0.06194,-0.37731 -0.21094,-0.57031l-2.04883,-2.77734l2.06641,-2.78516c0.149,-0.202 0.21094,-0.37027 0.21094,-0.57227c0,-0.413 -0.33325,-0.7207 -0.78125,-0.7207c-0.334,0 -0.53663,0.12242 -0.76562,0.48242l-1.65234,2.48828h-0.05273l-1.69531,-2.49609c-0.246,-0.361 -0.44002,-0.47461 -0.79102,-0.47461z"></path></g></g></g></svg>