<svg xmlns="http://www.w3.org/2000/svg" xmlns:xlink="http://www.w3.org/1999/xlink" viewBox="0,0,256,256" width="480px" height="480px" fill-rule="nonzero"><g transform="translate(-57.6,-57.6) scale(1.45,1.45)"><g fill="#a2a3a4" fill-rule="nonzero" stroke="none" stroke-width="1" stroke-linecap="butt" stroke-linejoin="miter" stroke-miterlimit="10" stroke-dasharray="" stroke-dashoffset="0" font-family="none" font-weight="none" font-size="none" text-anchor="none" style="mix-blend-mode: normal"><g transform="scale(4,4)"><path d="M20,10c-3.314,0 -6,2.686 -6,6v32c0,3.314 2.686,6 6,6h24c3.314,0 6,-2.686 6,-6v-19.34375c0,-1.592 -0.63281,-3.11719 -1.75781,-4.24219l-12.65625,-12.65625c-1.126,-1.125 -2.65119,-1.75781 -4.24219,-1.75781zM20,14h10v10c0,3.314 2.686,6 6,6h10v18c0,1.105 -0.895,2 -2,2h-24c-1.105,0 -2,-0.895 -2,-2v-32c0,-1.105 0.895,-2 2,-2zM34,15.82813l10.17188,10.17188h-8.17187c-1.105,0 -2,-0.895 -2,-2zM33.73242,33.17188c-0.77681,0.05555 -1.4842,0.56661 -1.75195,1.34961l-3.74414,10.95508c-0.358,1.046 0.20009,2.18402 1.24609,2.54102c0.213,0.073 0.43148,0.10742 0.64648,0.10742c0.832,0 1.60758,-0.52252 1.89258,-1.35352l3.74414,-10.95703c0.358,-1.046 -0.20009,-2.18206 -1.24609,-2.53906c-0.26025,-0.08925 -0.52817,-0.12203 -0.78711,-0.10352zM26.31836,35.47461c-0.5105,-0.03825 -1.03708,0.11752 -1.45508,0.47852l-3.68945,3.17773c-0.441,0.38 -0.69531,0.93362 -0.69531,1.51563c0,0.583 0.25431,1.13562 0.69531,1.51563l3.68945,3.17773c0.378,0.325 0.84269,0.48438 1.30469,0.48438c0.562,0 1.12063,-0.23531 1.51563,-0.69531c0.721,-0.837 0.62606,-2.09931 -0.21094,-2.82031l-1.92969,-1.66211l1.92969,-1.66211c0.837,-0.721 0.93194,-1.98527 0.21094,-2.82227c-0.36,-0.418 -0.85473,-0.64925 -1.36523,-0.6875zM37.68164,35.47461c-0.5105,0.03825 -1.00719,0.27145 -1.36719,0.68945c-0.721,0.838 -0.62606,2.09931 0.21094,2.82031l1.92969,1.66211l-1.92969,1.66211c-0.837,0.72 -0.93194,1.98331 -0.21094,2.82031c0.396,0.459 0.95558,0.69531 1.51758,0.69531c0.462,0 0.92674,-0.15842 1.30273,-0.48242l3.68945,-3.17773c0.441,-0.38 0.69531,-0.93263 0.69531,-1.51562c0,-0.582 -0.25431,-1.13562 -0.69531,-1.51563l-3.68945,-3.17969c-0.418,-0.361 -0.94262,-0.51677 -1.45312,-0.47852z"></path></g></g></g></svg>