<svg xmlns="http://www.w3.org/2000/svg" xmlns:xlink="http://www.w3.org/1999/xlink" viewBox="0,0,256,256" width="480px" height="480px" fill-rule="nonzero"><g transform="translate(-57.6,-57.6) scale(1.45,1.45)"><g fill="#486884" fill-rule="nonzero" stroke="none" stroke-width="1" stroke-linecap="butt" stroke-linejoin="miter" stroke-miterlimit="10" stroke-dasharray="" stroke-dashoffset="0" font-family="none" font-weight="none" font-size="none" text-anchor="none" style="mix-blend-mode: normal"><g transform="translate(0,-0.50781) scale(4,4)"><path d="M20,10.12695c-3.314,0 -6,2.686 -6,6v32c0,3.314 2.686,6 6,6h24c3.314,0 6,-2.686 6,-6v-19.34375c0,-1.591 -0.63281,-3.11523 -1.75781,-4.24023l-12.65625,-12.6582c-1.126,-1.125 -2.65119,-1.75586 -4.24219,-1.75586v-0.00195zM20,14.12891h10v9.87109c0,3.314 2.686,6 6,6h10v18.12891c0,1.105 -0.895,2 -2,2h-24c-1.105,0 -2,-0.895 -2,-2v-32c0,-1.105 0.895,-2 2,-2zM34,15.95703l10.04492,10.04297h-8.04492c-1.105,0 -2,-0.895 -2,-2zM21.21094,36.85742c-0.431,0 -0.7207,0.26431 -0.7207,0.69531c0,0.43 0.2897,0.69336 0.7207,0.69336h1.90625v5.72266c0,0.597 0.30909,0.98242 0.87109,0.98242c0.571,0 0.88867,-0.37642 0.88867,-0.98242v-5.72266h1.92383c0.439,0 0.72852,-0.26236 0.72852,-0.69336c0,-0.43 -0.28852,-0.69531 -0.72852,-0.69531zM37.19141,36.85742c-0.431,0 -0.7207,0.26431 -0.7207,0.69531c0,0.43 0.2897,0.69336 0.7207,0.69336h1.90625v5.72266c0,0.597 0.30909,0.98242 0.87109,0.98242c0.571,0 0.88672,-0.37642 0.88672,-0.98242v-5.72266h1.92578c0.439,0 0.72852,-0.26236 0.72852,-0.69336c0,-0.43 -0.28852,-0.69531 -0.72852,-0.69531zM29.42969,36.87695c-0.448,0 -0.80078,0.32409 -0.80078,0.74609c0,0.228 0.06152,0.38547 0.22852,0.60547l1.96875,2.68945l-2.07227,2.84766c-0.14,0.202 -0.20312,0.3515 -0.20312,0.5625c0,0.404 0.32562,0.71094 0.76563,0.71094c0.343,0 0.52606,-0.114 0.78906,-0.5l1.71484,-2.46875h0.04297l1.70508,2.46875c0.255,0.378 0.4402,0.50195 0.7832,0.50195c0.466,0 0.79883,-0.30728 0.79883,-0.73828c0,-0.211 -0.06194,-0.37731 -0.21094,-0.57031l-2.04687,-2.77734l2.06445,-2.78516c0.149,-0.202 0.21094,-0.37027 0.21094,-0.57227c0,-0.413 -0.33325,-0.7207 -0.78125,-0.7207c-0.334,0 -0.53663,0.12242 -0.76562,0.48242l-1.65234,2.48828h-0.05273l-1.69531,-2.49609c-0.246,-0.361 -0.44002,-0.47461 -0.79102,-0.47461z"></path></g></g></g></svg>