<svg xmlns="http://www.w3.org/2000/svg" xmlns:xlink="http://www.w3.org/1999/xlink" viewBox="0,0,256,256" width="480px" height="480px" fill-rule="nonzero"><g transform="translate(-57.6,-57.6) scale(1.45,1.45)"><g fill="#a37538" fill-rule="nonzero" stroke="none" stroke-width="1" stroke-linecap="butt" stroke-linejoin="miter" stroke-miterlimit="10" stroke-dasharray="" stroke-dashoffset="0" font-family="none" font-weight="none" font-size="none" text-anchor="none" style="mix-blend-mode: normal"><g transform="scale(4,4)"><path d="M20,10c-3.314,0 -6,2.686 -6,6v32c0,3.314 2.686,6 6,6h24c3.314,0 6,-2.686 6,-6v-19.34375c0,-1.592 -0.63281,-3.11719 -1.75781,-4.24219l-12.65625,-12.65625c-1.126,-1.125 -2.65119,-1.75781 -4.24219,-1.75781zM20,14h10v10c0,3.314 2.686,6 6,6h10v18c0,1.105 -0.895,2 -2,2h-24c-1.105,0 -2,-0.895 -2,-2v-32c0,-1.105 0.895,-2 2,-2zM34,15.82813l10.17188,10.17188h-8.17187c-1.105,0 -2,-0.895 -2,-2zM31.82227,36.83594c-0.562,0 -0.87109,0.37661 -0.87109,0.97461v6.21484c0,0.598 0.30909,0.97656 0.87109,0.97656c0.571,0 0.88867,-0.36956 0.88867,-0.97656v-6.21484c0,-0.607 -0.31767,-0.97461 -0.88867,-0.97461zM35.86914,36.99805c-0.571,0 -0.86914,0.37075 -0.86914,0.96875v6.15039c0,0.571 0.29875,0.94141 0.84375,0.94141c0.545,0 0.85352,-0.36141 0.85352,-0.94141v-1.60742h1.57227c1.749,0 2.91016,-1.089 2.91016,-2.75c0,-1.653 -1.16058,-2.76172 -2.89258,-2.76172zM24.04883,37.05664c-0.439,0 -0.73047,0.26355 -0.73047,0.68555c0,0.421 0.29947,0.68555 0.73047,0.68555h3.35547v0.06836l-3.72656,5.04688c-0.229,0.307 -0.29883,0.48133 -0.29883,0.73633c0,0.422 0.31762,0.72266 0.76563,0.72266h4.94922c0.43,0 0.72852,-0.26355 0.72852,-0.68555c0,-0.431 -0.29752,-0.68555 -0.72852,-0.68555h-3.55078v-0.08008l3.7168,-5.04492c0.228,-0.281 0.29102,-0.43113 0.29102,-0.70312c0,-0.439 -0.3262,-0.74609 -0.7832,-0.74609zM36.69531,38.27344h1.33594c0.941,0 1.50391,0.55414 1.50391,1.49414c0,0.923 -0.56391,1.47656 -1.50391,1.47656h-1.33594z"></path></g></g></g></svg>